<svg width="22" height="21" viewBox="0 0 22 21" fill="none" xmlns="http://www.w3.org/2000/svg">
<rect width="22" height="21" fill="#E5E5E5"/>
<g id="Real Estate Landing Page UI" clip-path="url(#clip0_0_1)">
<rect width="1440" height="5169" transform="translate(-168 -573)" fill="white"/>
<g id="header">
<g id="Content">
<g id="Input field &#38; Button">
<g id="input field">
<g id="bg" filter="url(#filter0_dddddd_0_1)">
<rect x="-33" y="-33" width="756" height="86" fill="white"/>
<rect x="-32.5" y="-32.5" width="755" height="85" stroke="#DADADA"/>
</g>
<g id="Icon">
<path id="Vector" d="M20.9041 6.22719L18.6685 4.87536V0.283746C18.6685 0.13855 18.5509 0.0211906 18.4059 0.0211906H15.0916C14.9468 0.0211906 14.8293 0.13855 14.8293 0.283746V2.55422L10.6674 0.0380134C10.641 0.022192 10.612 0.0119782 10.5821 0.00717169C10.5152 -0.00844948 10.4451 0.00256544 10.3863 0.0380134L0.157409 6.22719C0.0789031 6.27446 0.030838 6.35997 0.030838 6.4517V8.61723C0.030838 8.71135 0.0811061 8.79827 0.162616 8.84494C0.244327 8.8918 0.344663 8.8914 0.425773 8.84393L1.96626 7.94332V18.522H1.23327C1.08827 18.522 0.970911 18.6394 0.970911 18.7846V20.7376C0.970911 20.8826 1.08827 21.0002 1.23327 21.0002H19.8282C19.9732 21.0002 20.0908 20.8826 20.0908 20.7376V18.7846C20.0908 18.6394 19.9732 18.522 19.8282 18.522H19.0952V7.94392L20.6359 8.84393C20.6768 8.86777 20.7224 8.87978 20.7683 8.87978C20.8134 8.87978 20.8584 8.86817 20.8989 8.84494C20.9806 8.79827 21.0307 8.71135 21.0307 8.61723V6.4517C21.0307 6.35997 20.9826 6.27446 20.9041 6.22719ZM15.3542 0.546101H18.1434V4.55793L15.3542 2.87165V0.546101ZM19.5657 20.4751H1.49582V19.0469H19.5657V20.4751ZM12.8933 18.522H8.16825V10.3233H12.8933V18.522ZM18.5703 18.522H13.4184V10.0608C13.4184 9.91558 13.3008 9.79823 13.1558 9.79823H7.9057C7.7609 9.79823 7.64334 9.91558 7.64334 10.0608V18.522H2.49117V7.6363L10.5268 2.93794L18.5703 7.6371V18.522ZM20.5058 8.16001L10.6592 2.40722C10.6184 2.38339 10.5725 2.37137 10.5268 2.37137C10.481 2.37137 10.4353 2.38339 10.3943 2.40722L0.555749 8.15961V6.5995L10.5268 0.566729L20.5058 6.5995V8.16001Z" fill="#31353B"/>
</g>
</g>
</g>
</g>
</g>
</g>
<defs>
<filter id="filter0_dddddd_0_1" x="-113" y="-34.2963" width="916" height="267.296" filterUnits="userSpaceOnUse" color-interpolation-filters="sRGB">
<feFlood flood-opacity="0" result="BackgroundImageFix"/>
<feColorMatrix in="SourceAlpha" type="matrix" values="0 0 0 0 0 0 0 0 0 0 0 0 0 0 0 0 0 0 127 0" result="hardAlpha"/>
<feOffset dy="1.85185"/>
<feGaussianBlur stdDeviation="1.57407"/>
<feColorMatrix type="matrix" values="0 0 0 0 0 0 0 0 0 0 0 0 0 0 0 0 0 0 0.01 0"/>
<feBlend mode="normal" in2="BackgroundImageFix" result="effect1_dropShadow_0_1"/>
<feColorMatrix in="SourceAlpha" type="matrix" values="0 0 0 0 0 0 0 0 0 0 0 0 0 0 0 0 0 0 127 0" result="hardAlpha"/>
<feOffset dy="8.14815"/>
<feGaussianBlur stdDeviation="3.25926"/>
<feColorMatrix type="matrix" values="0 0 0 0 0 0 0 0 0 0 0 0 0 0 0 0 0 0 0.0117778 0"/>
<feBlend mode="normal" in2="effect1_dropShadow_0_1" result="effect2_dropShadow_0_1"/>
<feColorMatrix in="SourceAlpha" type="matrix" values="0 0 0 0 0 0 0 0 0 0 0 0 0 0 0 0 0 0 127 0" result="hardAlpha"/>
<feOffset dy="20"/>
<feGaussianBlur stdDeviation="6.5"/>
<feColorMatrix type="matrix" values="0 0 0 0 0 0 0 0 0 0 0 0 0 0 0 0 0 0 0.015 0"/>
<feBlend mode="normal" in2="effect2_dropShadow_0_1" result="effect3_dropShadow_0_1"/>
<feColorMatrix in="SourceAlpha" type="matrix" values="0 0 0 0 0 0 0 0 0 0 0 0 0 0 0 0 0 0 127 0" result="hardAlpha"/>
<feOffset dy="38.5185"/>
<feGaussianBlur stdDeviation="12.7407"/>
<feColorMatrix type="matrix" values="0 0 0 0 0 0 0 0 0 0 0 0 0 0 0 0 0 0 0.0182222 0"/>
<feBlend mode="normal" in2="effect3_dropShadow_0_1" result="effect4_dropShadow_0_1"/>
<feColorMatrix in="SourceAlpha" type="matrix" values="0 0 0 0 0 0 0 0 0 0 0 0 0 0 0 0 0 0 127 0" result="hardAlpha"/>
<feOffset dy="64.8148"/>
<feGaussianBlur stdDeviation="23.4259"/>
<feColorMatrix type="matrix" values="0 0 0 0 0 0 0 0 0 0 0 0 0 0 0 0 0 0 0.0227778 0"/>
<feBlend mode="normal" in2="effect4_dropShadow_0_1" result="effect5_dropShadow_0_1"/>
<feColorMatrix in="SourceAlpha" type="matrix" values="0 0 0 0 0 0 0 0 0 0 0 0 0 0 0 0 0 0 127 0" result="hardAlpha"/>
<feOffset dy="100"/>
<feGaussianBlur stdDeviation="40"/>
<feColorMatrix type="matrix" values="0 0 0 0 0 0 0 0 0 0 0 0 0 0 0 0 0 0 0.03 0"/>
<feBlend mode="normal" in2="effect5_dropShadow_0_1" result="effect6_dropShadow_0_1"/>
<feBlend mode="normal" in="SourceGraphic" in2="effect6_dropShadow_0_1" result="shape"/>
</filter>
<clipPath id="clip0_0_1">
<rect width="1440" height="5169" fill="white" transform="translate(-168 -573)"/>
</clipPath>
</defs>
</svg>
